<svg width="81" height="81" viewBox="0 0 81 81" fill="none" xmlns="http://www.w3.org/2000/svg">
<path d="M21.1875 59.7812C21.1875 58.1651 21.8295 56.6151 22.9723 55.4723C24.1151 54.3295 25.6651 53.6875 27.2812 53.6875H55.7188C57.3349 53.6875 58.8849 54.3295 60.0277 55.4723C61.1705 56.6151 61.8125 58.1651 61.8125 59.7812V65.875H21.1875V59.7812Z" fill="#829672"/>
<path d="M21.1875 59.7812C21.1875 58.1651 21.8295 56.6151 22.9723 55.4723C24.1151 54.3295 25.6651 53.6875 27.2812 53.6875H55.7188C57.3349 53.6875 58.8849 54.3295 60.0277 55.4723C61.1705 56.6151 61.8125 58.1651 61.8125 59.7812V65.875H21.1875V59.7812Z" fill="#829672" fill-opacity="0.63"/>
<path d="M52.6719 36.4219C52.6719 33.4589 51.4948 30.6173 49.3997 28.5222C47.3046 26.427 44.463 25.25 41.5 25.25C38.537 25.25 35.6954 26.427 33.6003 28.5222C31.5052 30.6173 30.3281 33.4589 30.3281 36.4219C30.3281 39.3848 31.5052 42.2265 33.6003 44.3216C35.6954 46.4167 38.537 47.5938 41.5 47.5938C44.463 47.5938 47.3046 46.4167 49.3997 44.3216C51.4948 42.2265 52.6719 39.3848 52.6719 36.4219Z" fill="#829672"/>
<path fill-rule="evenodd" clip-rule="evenodd" d="M23.2188 21.1875C22.68 21.1875 22.1634 21.4015 21.7824 21.7824C21.4015 22.1634 21.1875 22.68 21.1875 23.2188V29.3125C21.1875 30.3899 20.7595 31.4233 19.9976 32.1851C19.2358 32.947 18.2024 33.375 17.125 33.375C16.0476 33.375 15.0142 32.947 14.2524 32.1851C13.4905 31.4233 13.0625 30.3899 13.0625 29.3125V23.2188C13.0625 20.5251 14.1325 17.9419 16.0372 16.0372C17.9419 14.1325 20.5251 13.0625 23.2188 13.0625H29.3125C30.3899 13.0625 31.4233 13.4905 32.1851 14.2524C32.947 15.0142 33.375 16.0476 33.375 17.125C33.375 18.2024 32.947 19.2358 32.1851 19.9976C31.4233 20.7595 30.3899 21.1875 29.3125 21.1875H23.2188ZM49.625 17.125C49.625 16.0476 50.053 15.0142 50.8149 14.2524C51.5767 13.4905 52.6101 13.0625 53.6875 13.0625H59.7812C62.4749 13.0625 65.0581 14.1325 66.9628 16.0372C68.8675 17.9419 69.9375 20.5251 69.9375 23.2188V29.3125C69.9375 30.3899 69.5095 31.4233 68.7476 32.1851C67.9858 32.947 66.9524 33.375 65.875 33.375C64.7976 33.375 63.7642 32.947 63.0024 32.1851C62.2405 31.4233 61.8125 30.3899 61.8125 29.3125V23.2188C61.8125 22.68 61.5985 22.1634 61.2176 21.7824C60.8366 21.4015 60.32 21.1875 59.7812 21.1875H53.6875C52.6101 21.1875 51.5767 20.7595 50.8149 19.9976C50.053 19.2358 49.625 18.2024 49.625 17.125ZM17.125 49.625C18.2024 49.625 19.2358 50.053 19.9976 50.8149C20.7595 51.5767 21.1875 52.6101 21.1875 53.6875V59.7812C21.1875 60.32 21.4015 60.8366 21.7824 61.2176C22.1634 61.5985 22.68 61.8125 23.2188 61.8125H29.3125C30.3899 61.8125 31.4233 62.2405 32.1851 63.0024C32.947 63.7642 33.375 64.7976 33.375 65.875C33.375 66.9524 32.947 67.9858 32.1851 68.7476C31.4233 69.5095 30.3899 69.9375 29.3125 69.9375H23.2188C20.5251 69.9375 17.9419 68.8675 16.0372 66.9628C14.1325 65.0581 13.0625 62.4749 13.0625 59.7812V53.6875C13.0625 52.6101 13.4905 51.5767 14.2524 50.8149C15.0142 50.053 16.0476 49.625 17.125 49.625ZM65.875 49.625C66.9524 49.625 67.9858 50.053 68.7476 50.8149C69.5095 51.5767 69.9375 52.6101 69.9375 53.6875V59.7812C69.9375 62.4749 68.8675 65.0581 66.9628 66.9628C65.0581 68.8675 62.4749 69.9375 59.7812 69.9375H53.6875C52.6101 69.9375 51.5767 69.5095 50.8149 68.7476C50.053 67.9858 49.625 66.9524 49.625 65.875C49.625 64.7976 50.053 63.7642 50.8149 63.0024C51.5767 62.2405 52.6101 61.8125 53.6875 61.8125H59.7812C60.32 61.8125 60.8366 61.5985 61.2176 61.2176C61.5985 60.8366 61.8125 60.32 61.8125 59.7812V53.6875C61.8125 52.6101 62.2405 51.5767 63.0024 50.8149C63.7642 50.053 64.7976 49.625 65.875 49.625Z" fill="#38482C"/>
<rect x="1.375" y="1.375" width="79" height="79" stroke="#38482C"/>
</svg>
