<svg width="91" height="72" viewBox="0 0 91 72" fill="none" xmlns="http://www.w3.org/2000/svg">
<rect x="6" y="18" width="85" height="54" rx="15" fill="#38482C"/>
<rect y="11" width="85" height="54" rx="15" fill="#829672"/>
<rect x="19" y="46" width="47" height="12" rx="6" fill="#38482C"/>
<path d="M28.7588 17.3691H29.8672V23.082C30.0039 23.082 30.1455 23.0804 30.292 23.0771C30.4417 23.0739 30.5898 23.0706 30.7363 23.0674C30.8861 23.0641 31.0309 23.0609 31.1709 23.0576C31.3141 23.0511 31.4492 23.0446 31.5762 23.0381C31.8757 23.0251 32.1686 23.012 32.4551 22.999C32.4551 23.0544 32.4469 23.1374 32.4307 23.248C32.4176 23.3587 32.4014 23.471 32.3818 23.585C32.3623 23.6956 32.3428 23.7933 32.3232 23.8779C32.307 23.9593 32.2939 24 32.2842 24H28.7588V17.3691ZM36.0098 24.127C35.5215 24.127 35.1016 24.0488 34.75 23.8926C34.4017 23.7331 34.1152 23.5052 33.8906 23.209C33.6693 22.9095 33.5065 22.5482 33.4023 22.125C33.2982 21.6986 33.2461 21.2184 33.2461 20.6846C33.2461 20.1507 33.2998 19.6706 33.4072 19.2441C33.5179 18.8177 33.6855 18.4564 33.9102 18.1602C34.138 17.8639 34.4261 17.6377 34.7744 17.4814C35.1227 17.3219 35.5345 17.2422 36.0098 17.2422C36.5078 17.2422 36.9294 17.3171 37.2744 17.4668C37.6195 17.6133 37.8994 17.8298 38.1143 18.1162C38.3324 18.4027 38.4902 18.7542 38.5879 19.1709C38.6855 19.5843 38.7344 20.0579 38.7344 20.5918C38.7344 21.1289 38.6823 21.6156 38.5781 22.0518C38.474 22.4847 38.3112 22.8558 38.0898 23.165C37.8685 23.471 37.5853 23.7087 37.2402 23.8779C36.8984 24.0439 36.4883 24.127 36.0098 24.127ZM36.0098 23.2725C36.319 23.2725 36.5762 23.2074 36.7812 23.0771C36.9896 22.9469 37.1556 22.7646 37.2793 22.5303C37.4062 22.2926 37.4958 22.0094 37.5479 21.6807C37.6032 21.3519 37.6309 20.9889 37.6309 20.5918C37.6309 20.1654 37.6032 19.7959 37.5479 19.4834C37.4958 19.1676 37.4062 18.9072 37.2793 18.7021C37.1556 18.4938 36.9896 18.3392 36.7812 18.2383C36.5762 18.1374 36.319 18.0869 36.0098 18.0869C35.7005 18.0869 35.4385 18.1455 35.2236 18.2627C35.012 18.3766 34.8411 18.5459 34.7109 18.7705C34.5807 18.9919 34.4863 19.2637 34.4277 19.5859C34.3724 19.9082 34.3447 20.2744 34.3447 20.6846C34.3447 21.0947 34.3724 21.4609 34.4277 21.7832C34.4863 22.1055 34.5807 22.3773 34.7109 22.5986C34.8411 22.8167 35.012 22.9844 35.2236 23.1016C35.4385 23.2155 35.7005 23.2725 36.0098 23.2725ZM39.3984 20.7432C39.3984 20.1865 39.4652 19.6917 39.5986 19.2588C39.7354 18.8226 39.9339 18.4564 40.1943 18.1602C40.458 17.8607 40.7803 17.6328 41.1611 17.4766C41.5452 17.3203 41.9863 17.2422 42.4844 17.2422C42.6732 17.2422 42.8652 17.2568 43.0605 17.2861C43.2591 17.3122 43.4398 17.3431 43.6025 17.3789C43.7913 17.418 43.9736 17.4619 44.1494 17.5107C44.1429 17.5921 44.1299 17.6784 44.1104 17.7695C44.0941 17.8477 44.0697 17.9388 44.0371 18.043C44.0046 18.1439 43.9606 18.2513 43.9053 18.3652C43.7686 18.3164 43.6221 18.2741 43.4658 18.2383C43.3324 18.2057 43.1794 18.1764 43.0068 18.1504C42.8376 18.1243 42.6634 18.1113 42.4844 18.1113C42.1816 18.1113 41.9082 18.1732 41.6641 18.2969C41.4232 18.4206 41.2181 18.598 41.0488 18.8291C40.8828 19.057 40.7542 19.3337 40.6631 19.6592C40.5752 19.9814 40.5312 20.3428 40.5312 20.7432C40.5312 21.1403 40.5736 21.4951 40.6582 21.8076C40.7428 22.1201 40.8682 22.3838 41.0342 22.5986C41.2002 22.8135 41.4036 22.9779 41.6445 23.0918C41.8887 23.2057 42.1686 23.2627 42.4844 23.2627C42.5365 23.2627 42.5951 23.2627 42.6602 23.2627C42.7253 23.2627 42.7904 23.2611 42.8555 23.2578C42.9206 23.2546 42.984 23.2529 43.0459 23.2529C43.1077 23.2497 43.1631 23.2448 43.2119 23.2383C43.2119 23.1341 43.2103 23.0218 43.207 22.9014C43.2038 22.7809 43.2005 22.6589 43.1973 22.5352C43.194 22.4082 43.1891 22.2829 43.1826 22.1592C43.1794 22.0355 43.1761 21.9167 43.1729 21.8027C43.1598 21.5358 43.1484 21.2673 43.1387 20.9971C43.2559 20.9645 43.3617 20.9434 43.4561 20.9336C43.5537 20.9238 43.6367 20.9189 43.7051 20.9189C43.7734 20.9189 43.8402 20.9238 43.9053 20.9336C43.9736 20.9434 44.0355 20.9531 44.0908 20.9629C44.1527 20.9759 44.2113 20.9889 44.2666 21.002C44.2666 21.3861 44.2633 21.7555 44.2568 22.1104C44.2536 22.4619 44.2487 22.7744 44.2422 23.0479C44.2324 23.3701 44.2243 23.6696 44.2178 23.9463L44.125 24.0098C43.9525 24.0326 43.7751 24.0521 43.5928 24.0684C43.4365 24.0846 43.2607 24.0977 43.0654 24.1074C42.8701 24.1204 42.6764 24.127 42.4844 24.127C41.9863 24.127 41.5452 24.0553 41.1611 23.9121C40.7803 23.7689 40.458 23.5557 40.1943 23.2725C39.9339 22.986 39.7354 22.6328 39.5986 22.2129C39.4652 21.7897 39.3984 21.2998 39.3984 20.7432ZM45.5361 17.3691H46.6396V24H45.5361V17.3691ZM48.1826 17.3691H49.9355L51.6104 21.5098L52.2793 23.3945L52.2158 21.5098L52.1816 17.3691H53.2363V24H51.5273L49.8135 19.8496L49.1445 17.9355L49.208 19.8496L49.2422 24H48.1826V17.3691Z" fill="white"/>
<rect x="19" y="30" width="47" height="12" rx="6" fill="#38482C"/>
</svg>
