<svg width="54" height="54" viewBox="0 0 54 54" fill="none" xmlns="http://www.w3.org/2000/svg">
<path d="M42.6389 15.7188H39.2467L37.1078 13.599C35.8694 12.3716 33.6962 11.4792 31.9445 11.4792H23.3889C21.6372 11.4792 19.4641 12.3716 18.2257 13.599L16.0868 15.7188H12.6945C9.15678 15.7188 6.27783 18.572 6.27783 22.0781V39.0365C6.27783 42.5426 9.15678 45.3958 12.6945 45.3958H42.6389C46.1767 45.3958 49.0556 42.5426 49.0556 39.0365V22.0781C49.0556 18.572 46.1767 15.7188 42.6389 15.7188ZM27.6667 36.9167C25.681 36.9164 23.7767 36.1343 22.3728 34.7426C20.9689 33.3508 20.1803 31.4633 20.1806 29.4953C20.1809 27.5273 20.97 25.64 22.3743 24.2486C23.7786 22.8572 25.6831 22.0757 27.6689 22.076C29.6546 22.0763 31.5589 22.8583 32.9628 24.2501C34.3667 25.6419 35.1553 27.5294 35.155 29.4974C35.1547 31.4654 34.3656 33.3527 32.9613 34.7441C31.5569 36.1354 29.6524 36.917 27.6667 36.9167ZM40.5001 26.9515C40.1349 26.9515 39.7733 26.8803 39.436 26.7418C39.0986 26.6033 38.7921 26.4003 38.5339 26.1444C38.2757 25.8885 38.0709 25.5847 37.9312 25.2504C37.7914 24.916 37.7195 24.5577 37.7195 24.1958C37.7195 23.8339 37.7914 23.4756 37.9312 23.1412C38.0709 22.8069 38.2757 22.5031 38.5339 22.2472C38.7921 21.9913 39.0986 21.7883 39.436 21.6498C39.7733 21.5114 40.1349 21.4401 40.5001 21.4401C41.2375 21.4401 41.9447 21.7304 42.4662 22.2472C42.9877 22.764 43.2806 23.4649 43.2806 24.1958C43.2806 24.9267 42.9877 25.6276 42.4662 26.1444C41.9447 26.6612 41.2375 26.9515 40.5001 26.9515Z" fill="#38482C"/>
<path d="M40.6389 12.7188H37.2467L35.1078 10.599C33.8694 9.3716 31.6962 8.47917 29.9445 8.47917H21.3889C19.6372 8.47917 17.4641 9.3716 16.2257 10.599L14.0868 12.7188H10.6945C7.15678 12.7188 4.27783 15.572 4.27783 19.0781V36.0365C4.27783 39.5426 7.15678 42.3958 10.6945 42.3958H40.6389C44.1767 42.3958 47.0556 39.5426 47.0556 36.0365V19.0781C47.0556 15.572 44.1767 12.7188 40.6389 12.7188ZM25.6667 33.9167C23.681 33.9164 21.7767 33.1343 20.3728 31.7426C18.9689 30.3508 18.1803 28.4633 18.1806 26.4953C18.1809 24.5273 18.97 22.64 20.3743 21.2486C21.7786 19.8572 23.6831 19.0757 25.6689 19.076C27.6546 19.0763 29.5589 19.8583 30.9628 21.2501C32.3667 22.6419 33.1553 24.5294 33.155 26.4974C33.1547 28.4654 32.3656 30.3527 30.9613 31.7441C29.5569 33.1354 27.6524 33.917 25.6667 33.9167ZM38.5001 23.9515C38.1349 23.9515 37.7733 23.8803 37.436 23.7418C37.0986 23.6033 36.7921 23.4003 36.5339 23.1444C36.2757 22.8885 36.0709 22.5847 35.9312 22.2504C35.7914 21.916 35.7195 21.5577 35.7195 21.1958C35.7195 20.8339 35.7914 20.4756 35.9312 20.1412C36.0709 19.8069 36.2757 19.5031 36.5339 19.2472C36.7921 18.9913 37.0986 18.7883 37.436 18.6498C37.7733 18.5114 38.1349 18.4401 38.5001 18.4401C39.2375 18.4401 39.9447 18.7304 40.4662 19.2472C40.9877 19.764 41.2806 20.4649 41.2806 21.1958C41.2806 21.9267 40.9877 22.6276 40.4662 23.1444C39.9447 23.6612 39.2375 23.9515 38.5001 23.9515Z" fill="#829672"/>
</svg>
