<svg width="80" height="85" viewBox="0 0 80 85" fill="none" xmlns="http://www.w3.org/2000/svg">
<path d="M40.0717 26.52V53.48M29.7217 28.095V43.4567M50.4217 36.5367V51.965M60.8334 40.21V48.4167M19.1667 31.7017V39.9083" stroke="#38482C" stroke-width="0.5" stroke-linecap="round" stroke-linejoin="round"/>
<path d="M64.1668 9.16667H15.8334C12.1515 9.16667 9.16675 12.1514 9.16675 15.8333V64.1667C9.16675 67.8486 12.1515 70.8333 15.8334 70.8333H64.1668C67.8486 70.8333 70.8334 67.8486 70.8334 64.1667V15.8333C70.8334 12.1514 67.8486 9.16667 64.1668 9.16667Z" stroke="#38482C" stroke-width="0.5" stroke-linecap="round" stroke-linejoin="round"/>
<path d="M69.7128 69.128L69.4668 69.694C69.4283 69.7862 69.3635 69.8649 69.2804 69.9203C69.1973 69.9756 69.0996 70.0052 68.9998 70.0052C68.8999 70.0052 68.8023 69.9756 68.7192 69.9203C68.6361 69.8649 68.5712 69.7862 68.5328 69.694L68.2868 69.128C67.8542 68.1267 67.0621 67.3239 66.0668 66.878L65.3078 66.539C65.2157 66.4966 65.1377 66.4288 65.083 66.3434C65.0283 66.2581 64.9993 66.1589 64.9993 66.0575C64.9993 65.9561 65.0283 65.8569 65.083 65.7716C65.1377 65.6862 65.2157 65.6184 65.3078 65.576L66.0248 65.257C67.0452 64.7984 67.8508 63.9659 68.2758 62.931L68.5288 62.32C68.5659 62.2254 68.6307 62.1441 68.7147 62.0868C68.7988 62.0295 68.8981 61.9989 68.9998 61.9989C69.1014 61.9989 69.2008 62.0295 69.2848 62.0868C69.3688 62.1441 69.4336 62.2254 69.4708 62.32L69.7238 62.93C70.1483 63.9651 70.9536 64.7979 71.9738 65.257L72.6918 65.577C72.7836 65.6195 72.8613 65.6873 72.9158 65.7726C72.9702 65.8578 72.9992 65.9568 72.9992 66.058C72.9992 66.1592 72.9702 66.2582 72.9158 66.3434C72.8613 66.4287 72.7836 66.4965 72.6918 66.539L71.9318 66.877C70.9366 67.3234 70.1448 68.1265 69.7128 69.128ZM57.9998 64H62.9998V67H59.9998V78C59.9996 78.8805 59.7088 79.7363 59.1727 80.4348C58.6365 81.1332 57.8849 81.6352 57.0344 81.863C56.1839 82.0907 55.2819 82.0315 54.4685 81.6944C53.6551 81.3573 52.9756 80.7613 52.5354 79.9987C52.0953 79.2361 51.919 78.3496 52.034 77.4767C52.149 76.6037 52.5489 75.7931 53.1715 75.1705C53.7941 74.5479 54.6048 74.1482 55.4778 74.0333C56.3507 73.9184 57.2372 74.0947 57.9998 74.535V64ZM68.9998 74.535V72H70.9998V78C70.9996 78.8805 70.7088 79.7363 70.1727 80.4348C69.6365 81.1332 68.8849 81.6352 68.0344 81.863C67.1839 82.0907 66.2819 82.0315 65.4685 81.6944C64.6551 81.3573 63.9756 80.7613 63.5354 79.9987C63.0953 79.2361 62.919 78.3496 63.034 77.4767C63.149 76.6037 63.5489 75.7931 64.1715 75.1705C64.7941 74.5479 65.6048 74.1482 66.4778 74.0333C67.3507 73.9184 68.2372 74.0947 68.9998 74.535Z" fill="#829672"/>
</svg>
