<svg width="80" height="80" viewBox="0 0 80 80" fill="none" xmlns="http://www.w3.org/2000/svg">
<rect x="0.5" y="0.5" width="79" height="79" stroke="#38482C"/>
<path d="M22.8958 46.5833L12.3333 36.0208L22.8958 25.4583L33.4583 36.0208L22.8958 46.5833ZM32.3749 72.5833V59.0417C29.6214 58.816 26.8905 58.4883 24.1822 58.0585C21.4739 57.6288 18.7881 57.0537 16.1249 56.3333L17.4791 50.9167C21.2708 51.9549 25.0742 52.6662 28.8893 53.0508C32.7044 53.4354 36.5746 53.6268 40.4999 53.625C44.4252 53.6232 48.2963 53.4309 52.1133 53.0481C55.9302 52.6653 59.7327 51.9549 63.5208 50.9167L64.8749 56.3333C62.2117 57.0555 59.526 57.6315 56.8176 58.0612C54.1093 58.491 51.3784 58.8178 48.6249 59.0417V72.5833H32.3749ZM40.4999 31.9583C38.243 31.9583 36.3246 31.1684 34.7447 29.5885C33.1649 28.0087 32.3749 26.0903 32.3749 23.8333C32.3749 21.5764 33.1649 19.658 34.7447 18.0781C36.3246 16.4983 38.243 15.7083 40.4999 15.7083C42.7569 15.7083 44.6753 16.4983 46.2551 18.0781C47.835 19.658 48.6249 21.5764 48.6249 23.8333C48.6249 26.0903 47.835 28.0087 46.2551 29.5885C44.6753 31.1684 42.7569 31.9583 40.4999 31.9583ZM40.4999 50.9167C39.0103 50.9167 37.7356 50.3867 36.6758 49.3269C35.6159 48.267 35.0851 46.9914 35.0833 45.5C35.0814 44.0086 35.6123 42.7339 36.6758 41.6758C37.7392 40.6178 39.0139 40.0869 40.4999 40.0833C41.9859 40.0797 43.2615 40.6105 44.3268 41.6758C45.3921 42.7411 45.922 44.0158 45.9166 45.5C45.9112 46.9842 45.3812 48.2598 44.3268 49.3269C43.2724 50.394 41.9967 50.9239 40.4999 50.9167ZM54.177 45.5L49.5728 37.375L54.177 29.25H63.3853L67.9895 37.375L63.3853 45.5H54.177Z" fill="#829672"/>
<path d="M32.5781 18.9834C32.5781 16.0166 33.2438 15.3983 36.4322 15.3983M32.5781 25.2581V21.6721M36.4322 31.532C33.2428 31.532 32.5781 30.9128 32.5781 27.9468M43.1775 31.532H39.3225M49.9219 27.9468C49.9219 30.9137 49.2562 31.532 46.0678 31.532M49.9219 21.6721V25.2581M46.0678 15.3983C49.2572 15.3983 49.9219 16.0174 49.9219 18.9834M39.3225 15.3983H43.1775" stroke="#38482C" stroke-width="1.5" stroke-linecap="round"/>
</svg>
